M48
; DRILL file {KiCad (6.0.10)} date Tue Apr 11 10:45:34 2023
; FORMAT={-:-/ absolute / inch / decimal}
; #@! TF.CreationDate,2023-04-11T10:45:34-04:00
; #@! TF.GenerationSoftware,Kicad,Pcbnew,(6.0.10)
; #@! TF.FileFunction,Plated,1,2,PTH
FMAT,2
INCH
; #@! TA.AperFunction,Plated,PTH,ComponentDrill
T1C0.0138
; #@! TA.AperFunction,Plated,PTH,ComponentDrill
T2C0.0276
; #@! TA.AperFunction,Plated,PTH,ComponentDrill
T3C0.0315
; #@! TA.AperFunction,Plated,PTH,ViaDrill
T4C0.0335
; #@! TA.AperFunction,Plated,PTH,ComponentDrill
T5C0.0354
; #@! TA.AperFunction,Plated,PTH,ComponentDrill
T6C0.0394
; #@! TA.AperFunction,Plated,PTH,ComponentDrill
T7C0.0472
; #@! TA.AperFunction,Plated,PTH,ComponentDrill
T8C0.0512
%
G90
G05
T2
X3.5024Y-2.6772
X3.5024Y-2.9528
X3.5024Y-3.3465
X3.5024Y-3.622
X3.5024Y-3.8976
X3.5024Y-4.1732
X3.5024Y-4.4488
X3.5024Y-4.7244
X3.7024Y-2.6772
X3.7024Y-2.9528
X3.7024Y-3.3465
X3.7024Y-3.622
X3.7024Y-3.8976
X3.7024Y-4.1732
X3.7024Y-4.4488
X3.7024Y-4.7244
X4.526Y-2.6772
X4.526Y-3.3465
X4.526Y-3.622
X4.526Y-3.8976
X4.526Y-4.1732
X4.526Y-4.4488
X4.526Y-4.7244
X4.5283Y-2.9528
X4.726Y-2.6772
X4.726Y-3.3465
X4.726Y-3.622
X4.726Y-3.8976
X4.726Y-4.1732
X4.726Y-4.4488
X4.726Y-4.7244
X4.7283Y-2.9528
T3
X5.25Y-3.2748
X5.25Y-3.5748
X5.35Y-3.2748
X5.35Y-3.5748
X5.45Y-3.2748
X5.45Y-3.5748
X5.55Y-3.2748
X5.55Y-3.5748
X5.65Y-3.2748
X5.65Y-3.5748
X5.75Y-3.2748
X5.75Y-3.5748
X5.85Y-3.2748
X5.85Y-3.5748
X5.95Y-3.2748
X5.95Y-3.5748
X6.05Y-3.2748
X6.05Y-3.5748
X6.063Y-3.0315
X6.063Y-3.1299
X6.3657Y-4.1807
X6.3657Y-4.2807
X6.3657Y-4.3807
X6.3657Y-4.4807
X6.3917Y-3.2748
X6.3917Y-3.5748
X6.4917Y-3.2748
X6.4917Y-3.5748
X6.5917Y-3.2748
X6.5917Y-3.5748
X6.6657Y-4.1807
X6.6657Y-4.2807
X6.6657Y-4.3807
X6.6657Y-4.4807
X6.6917Y-3.2748
X6.6917Y-3.5748
X6.7917Y-3.2748
X6.7917Y-3.5748
X6.811Y-4.1732
X6.8917Y-3.2748
X6.8917Y-3.5748
X6.9094Y-4.1732
X6.9917Y-3.2748
X6.9917Y-3.5748
X7.0917Y-3.2748
X7.0917Y-3.5748
X7.1917Y-3.2748
X7.1917Y-3.5748
X7.2047Y-3.0315
X7.2047Y-3.1299
X7.6378Y-3.1496
X7.7362Y-3.1496
X8.0512Y-2.7756
X8.0512Y-2.874
X8.1374Y-3.3472
X8.1374Y-3.4457
T4
X5.7677Y-4.5276
X5.9252Y-4.4882
T5
X3.8772Y-2.6772
X3.8795Y-2.9528
X3.8803Y-3.3465
X3.8803Y-3.622
X3.8803Y-3.8976
X3.8803Y-4.1732
X3.8803Y-4.4488
X3.8803Y-4.7244
X3.9772Y-2.6772
X3.9795Y-2.9528
X3.9803Y-3.3465
X3.9803Y-3.622
X3.9803Y-3.8976
X3.9803Y-4.1732
X3.9803Y-4.4488
X3.9803Y-4.7244
X4.2558Y-3.3465
X4.2558Y-3.622
X4.2558Y-3.8976
X4.2558Y-4.1732
X4.2558Y-4.4488
X4.2558Y-4.7244
X4.2561Y-2.953
X4.2563Y-2.6772
X4.3558Y-3.3465
X4.3558Y-3.622
X4.3558Y-3.8976
X4.3558Y-4.1732
X4.3558Y-4.4488
X4.3558Y-4.7244
X4.3561Y-2.953
X4.3563Y-2.6772
T6
X7.1205Y-4.1213
X7.1205Y-4.7213
X7.2205Y-4.1213
X7.2205Y-4.7213
X7.3205Y-4.1213
X7.3205Y-4.7213
X7.4205Y-4.1213
X7.4205Y-4.7213
X7.5205Y-4.1213
X7.5205Y-4.7213
X7.6205Y-4.1213
X7.6205Y-4.7213
X7.7205Y-4.1213
X7.7205Y-4.7213
X7.8205Y-4.1213
X7.8205Y-4.7213
X7.9205Y-4.1213
X7.9205Y-4.7213
X8.0205Y-4.1213
X8.0205Y-4.7213
X8.1205Y-4.1213
X8.1205Y-4.7213
X8.2205Y-4.1213
X8.2205Y-4.7213
X8.3205Y-4.1213
X8.3205Y-4.7213
X8.4205Y-4.1213
X8.4205Y-4.7213
T7
X4.6654Y-2.2835
X4.8031Y-2.2835
X4.9409Y-2.2835
X5.0787Y-2.2835
X5.689Y-2.2756
X5.7579Y-2.7165
X5.8268Y-2.2756
X5.8957Y-2.7165
X5.9646Y-2.2756
X6.0335Y-2.7165
X6.1024Y-2.2756
X6.1713Y-2.7165
X6.2402Y-2.2756
X6.3091Y-2.7165
X6.378Y-2.2756
X6.4469Y-2.7165
X6.5157Y-2.2756
X6.5846Y-2.7165
X6.6535Y-2.2756
X6.7224Y-2.7165
X7.0866Y-2.2835
X7.2047Y-5.1575
X7.2244Y-2.2835
X7.3425Y-5.1575
X7.3622Y-2.2835
X7.4803Y-5.1575
X7.5Y-2.2835
X7.6181Y-5.1575
X7.6378Y-2.2835
X7.7559Y-5.1575
X7.7756Y-2.2835
X7.8937Y-5.1575
X7.9134Y-2.2835
X8.0315Y-5.1575
X8.0512Y-2.2835
X8.1693Y-5.1575
X8.3661Y-2.7657
X8.3661Y-2.9035
T8
X7.7362Y-2.7165
X7.7362Y-2.9134
T1
G00X7.638Y-3.3465
M15
G01X7.6281Y-3.3465
M16
G05
G00X7.738Y-3.3465
M15
G01X7.7281Y-3.3465
M16
G05
G00X7.838Y-3.3465
M15
G01X7.8281Y-3.3465
M16
G05
G00X7.938Y-3.3465
M15
G01X7.9281Y-3.3465
M16
G05
T0
M30
