%TF.GenerationSoftware,KiCad,Pcbnew,(6.0.10)*%
%TF.CreationDate,2023-03-14T16:03:47-04:00*%
%TF.ProjectId,SequenceOM,53657175-656e-4636-954f-4d2e6b696361,rev?*%
%TF.SameCoordinates,Original*%
%TF.FileFunction,Copper,L1,Top*%
%TF.FilePolarity,Positive*%
%FSLAX46Y46*%
G04 Gerber Fmt 4.6, Leading zero omitted, Abs format (unit mm)*
G04 Created by KiCad (PCBNEW (6.0.10)) date 2023-03-14 16:03:47*
%MOMM*%
%LPD*%
G01*
G04 APERTURE LIST*
%TA.AperFunction,ComponentPad*%
%ADD10C,1.400000*%
%TD*%
%TA.AperFunction,ComponentPad*%
%ADD11O,1.400000X1.400000*%
%TD*%
%TA.AperFunction,ComponentPad*%
%ADD12C,2.600000*%
%TD*%
%TA.AperFunction,ComponentPad*%
%ADD13R,1.800000X1.800000*%
%TD*%
%TA.AperFunction,ComponentPad*%
%ADD14C,1.800000*%
%TD*%
%TA.AperFunction,ComponentPad*%
%ADD15C,1.600000*%
%TD*%
%TA.AperFunction,ComponentPad*%
%ADD16C,2.400000*%
%TD*%
%TA.AperFunction,ComponentPad*%
%ADD17O,1.300000X0.750000*%
%TD*%
%TA.AperFunction,ComponentPad*%
%ADD18O,1.600000X1.600000*%
%TD*%
%TA.AperFunction,ComponentPad*%
%ADD19R,1.600000X1.600000*%
%TD*%
%TA.AperFunction,ComponentPad*%
%ADD20C,1.524000*%
%TD*%
%TA.AperFunction,ViaPad*%
%ADD21C,1.500000*%
%TD*%
%TA.AperFunction,Conductor*%
%ADD22C,0.750000*%
%TD*%
%TA.AperFunction,Conductor*%
%ADD23C,1.000000*%
%TD*%
%TA.AperFunction,Conductor*%
%ADD24C,0.500000*%
%TD*%
G04 APERTURE END LIST*
D10*
%TO.P,R3,1*%
%TO.N,Net-(D3-Pad2)*%
X94040000Y-75000000D03*
D11*
%TO.P,R3,2*%
%TO.N,Net-(MCU1-Pad17)*%
X88960000Y-75000000D03*
%TD*%
D12*
%TO.P,L1,1*%
%TO.N,+12V*%
X196500000Y-69000000D03*
%TO.P,L1,2*%
%TO.N,Net-(C3-Pad1)*%
X196500000Y-74000000D03*
%TD*%
D13*
%TO.P,D7,1,K*%
%TO.N,Earth*%
X108098484Y-99000000D03*
D14*
%TO.P,D7,2,A*%
%TO.N,Net-(D7-Pad2)*%
X110638484Y-99000000D03*
%TD*%
D10*
%TO.P,R15,1*%
%TO.N,Net-(D15-Pad2)*%
X94040000Y-113000000D03*
D11*
%TO.P,R15,2*%
%TO.N,Net-(MCU1-Pad7)*%
X88960000Y-113000000D03*
%TD*%
D13*
%TO.P,D12,1,K*%
%TO.N,Earth*%
X101098484Y-92000000D03*
D14*
%TO.P,D12,2,A*%
%TO.N,Net-(D12-Pad2)*%
X98558484Y-92000000D03*
%TD*%
D10*
%TO.P,R9,1*%
%TO.N,Net-(D11-Pad2)*%
X94040000Y-85000000D03*
D11*
%TO.P,R9,2*%
%TO.N,Net-(R9-Pad2)*%
X88960000Y-85000000D03*
%TD*%
D13*
%TO.P,D8,1,K*%
%TO.N,Earth*%
X108098484Y-106000000D03*
D14*
%TO.P,D8,2,A*%
%TO.N,Net-(D8-Pad2)*%
X110638484Y-106000000D03*
%TD*%
D13*
%TO.P,D10,1,K*%
%TO.N,Earth*%
X108098484Y-120000000D03*
D14*
%TO.P,D10,2,A*%
%TO.N,Net-(D10-Pad2)*%
X110638484Y-120000000D03*
%TD*%
D15*
%TO.P,C5,2*%
%TO.N,+12V*%
X154000000Y-79500000D03*
%TO.P,C5,1*%
%TO.N,Earth*%
X154000000Y-77000000D03*
%TD*%
%TO.P,C3,1*%
%TO.N,Net-(C3-Pad1)*%
X196500000Y-80000000D03*
%TO.P,C3,2*%
%TO.N,+5V*%
X194000000Y-80000000D03*
%TD*%
D13*
%TO.P,D13,1,K*%
%TO.N,Earth*%
X101098484Y-99000000D03*
D14*
%TO.P,D13,2,A*%
%TO.N,Net-(D13-Pad2)*%
X98558484Y-99000000D03*
%TD*%
D16*
%TO.P,J5,1,Pin_1*%
%TO.N,Net-(J5-Pad1)*%
X170750000Y-69000000D03*
%TO.P,J5,2,Pin_2*%
%TO.N,Net-(J5-Pad2)*%
X167250000Y-69000000D03*
%TO.P,J5,3,Pin_3*%
%TO.N,Net-(J5-Pad3)*%
X163750000Y-69000000D03*
%TO.P,J5,4,Pin_4*%
%TO.N,Net-(J5-Pad4)*%
X160250000Y-69000000D03*
%TO.P,J5,5,Pin_5*%
%TO.N,Net-(J5-Pad5)*%
X156750000Y-69000000D03*
%TO.P,J5,6,Pin_6*%
%TO.N,Net-(J5-Pad6)*%
X153250000Y-69000000D03*
%TO.P,J5,7,Pin_7*%
%TO.N,Net-(J5-Pad7)*%
X149750000Y-69000000D03*
%TO.P,J5,8,Pin_8*%
%TO.N,Net-(J5-Pad8)*%
X146250000Y-69000000D03*
%TO.P,J5,9,Pin_9*%
%TO.N,Net-(J5-Pad9)*%
X169000000Y-57800000D03*
%TO.P,J5,10,Pin_10*%
%TO.N,Net-(J5-Pad10)*%
X165500000Y-57800000D03*
%TO.P,J5,11,Pin_11*%
%TO.N,Net-(J5-Pad11)*%
X162000000Y-57800000D03*
%TO.P,J5,12,Pin_12*%
%TO.N,Net-(J5-Pad12)*%
X158500000Y-57800000D03*
%TO.P,J5,13,Pin_13*%
%TO.N,Net-(J5-Pad13)*%
X155000000Y-57800000D03*
%TO.P,J5,14,Pin_14*%
%TO.N,Net-(J5-Pad14)*%
X151500000Y-57800000D03*
%TO.P,J5,15,Pin_15*%
%TO.N,Net-(J5-Pad15)*%
X148000000Y-57800000D03*
%TO.P,J5,16,Pin_16*%
%TO.N,Net-(J5-Pad16)*%
X144500000Y-57800000D03*
%TD*%
D10*
%TO.P,R16,1*%
%TO.N,Net-(D16-Pad2)*%
X94040000Y-120000000D03*
D11*
%TO.P,R16,2*%
%TO.N,Net-(MCU1-Pad6)*%
X88960000Y-120000000D03*
%TD*%
D15*
%TO.P,C6,1*%
%TO.N,Earth*%
X183000000Y-77000000D03*
%TO.P,C6,2*%
%TO.N,+12V*%
X183000000Y-79500000D03*
%TD*%
D13*
%TO.P,D5,1,K*%
%TO.N,Earth*%
X108098484Y-85000000D03*
D14*
%TO.P,D5,2,A*%
%TO.N,Net-(D5-Pad2)*%
X110638484Y-85000000D03*
%TD*%
D13*
%TO.P,D9,1,K*%
%TO.N,Earth*%
X108098484Y-113000000D03*
D14*
%TO.P,D9,2,A*%
%TO.N,Net-(D9-Pad2)*%
X110638484Y-113000000D03*
%TD*%
D10*
%TO.P,R11,1*%
%TO.N,Net-(D12-Pad2)*%
X94040000Y-92000000D03*
D11*
%TO.P,R11,2*%
%TO.N,Net-(R11-Pad2)*%
X88960000Y-92000000D03*
%TD*%
D17*
%TO.P,U1,1,-Vin*%
%TO.N,Earth*%
X201500000Y-85000000D03*
%TO.P,U1,2,+Vin*%
%TO.N,Net-(C3-Pad1)*%
X198960000Y-85000000D03*
%TO.P,U1,3,-Vout*%
%TO.N,Earth*%
X196420000Y-85000000D03*
%TO.P,U1,4,+Vout*%
%TO.N,+5V*%
X193880000Y-85000000D03*
%TD*%
D10*
%TO.P,R12,1*%
%TO.N,Net-(MCU1-Pad5)*%
X120040000Y-85000000D03*
D11*
%TO.P,R12,2*%
%TO.N,Net-(D5-Pad2)*%
X114960000Y-85000000D03*
%TD*%
D16*
%TO.P,J3,8,Pin_8*%
%TO.N,Earth*%
X207500000Y-131000000D03*
%TO.P,J3,7,Pin_7*%
%TO.N,Net-(J3-Pad7)*%
X204000000Y-131000000D03*
%TO.P,J3,6,Pin_6*%
%TO.N,Earth*%
X200500000Y-131000000D03*
%TO.P,J3,5,Pin_5*%
%TO.N,Net-(J3-Pad5)*%
X197000000Y-131000000D03*
%TO.P,J3,4,Pin_4*%
%TO.N,Earth*%
X193500000Y-131000000D03*
%TO.P,J3,3,Pin_3*%
%TO.N,Net-(J3-Pad3)*%
X190000000Y-131000000D03*
%TO.P,J3,2,Pin_2*%
%TO.N,Earth*%
X186500000Y-131000000D03*
%TO.P,J3,1,Pin_1*%
%TO.N,Net-(J3-Pad1)*%
X183000000Y-131000000D03*
%TD*%
D13*
%TO.P,D15,1,K*%
%TO.N,Earth*%
X101098484Y-113000000D03*
D14*
%TO.P,D15,2,A*%
%TO.N,Net-(D15-Pad2)*%
X98558484Y-113000000D03*
%TD*%
D10*
%TO.P,R5,1*%
%TO.N,Net-(MCU1-Pad0)*%
X120040000Y-120000000D03*
D11*
%TO.P,R5,2*%
%TO.N,Net-(D10-Pad2)*%
X114960000Y-120000000D03*
%TD*%
D15*
%TO.P,C1,1*%
%TO.N,Earth*%
X204500000Y-73000000D03*
%TO.P,C1,2*%
%TO.N,+12V*%
X204500000Y-70500000D03*
%TD*%
%TO.P,C4,1*%
%TO.N,Earth*%
X175500000Y-106000000D03*
%TO.P,C4,2*%
%TO.N,+5V*%
X173000000Y-106000000D03*
%TD*%
D10*
%TO.P,R14,1*%
%TO.N,Net-(D14-Pad2)*%
X94040000Y-106000000D03*
D11*
%TO.P,R14,2*%
%TO.N,Net-(MCU1-Pad8)*%
X88960000Y-106000000D03*
%TD*%
D13*
%TO.P,D6,1,K*%
%TO.N,Earth*%
X108098484Y-92000000D03*
D14*
%TO.P,D6,2,A*%
%TO.N,Net-(D6-Pad2)*%
X110638484Y-92000000D03*
%TD*%
D18*
%TO.P,U4,18,O1*%
%TO.N,Net-(J5-Pad10)*%
X162350000Y-83180000D03*
%TO.P,U4,17,O2*%
%TO.N,Net-(J5-Pad9)*%
X164890000Y-83180000D03*
%TO.P,U4,16,O3*%
%TO.N,Net-(J5-Pad6)*%
X167430000Y-83180000D03*
%TO.P,U4,15,O4*%
%TO.N,Net-(J5-Pad5)*%
X169970000Y-83180000D03*
%TO.P,U4,14,O5*%
%TO.N,Net-(J5-Pad4)*%
X172510000Y-83180000D03*
%TO.P,U4,13,O6*%
%TO.N,Net-(J5-Pad3)*%
X175050000Y-83180000D03*
%TO.P,U4,12,O7*%
%TO.N,Net-(J5-Pad2)*%
X177590000Y-83180000D03*
%TO.P,U4,11,O8*%
%TO.N,Net-(J5-Pad1)*%
X180130000Y-83180000D03*
%TO.P,U4,10,COM*%
%TO.N,+12V*%
X182670000Y-83180000D03*
%TO.P,U4,9,GND*%
%TO.N,Earth*%
X182670000Y-90800000D03*
%TO.P,U4,8,I8*%
%TO.N,Net-(MCU1-Pad0)*%
X180130000Y-90800000D03*
%TO.P,U4,7,I7*%
%TO.N,Net-(MCU1-Pad1)*%
X177590000Y-90800000D03*
%TO.P,U4,6,I6*%
%TO.N,Net-(MCU1-Pad2)*%
X175050000Y-90800000D03*
%TO.P,U4,5,I5*%
%TO.N,Net-(MCU1-Pad3)*%
X172510000Y-90800000D03*
%TO.P,U4,4,I4*%
%TO.N,Net-(MCU1-Pad4)*%
X169970000Y-90800000D03*
%TO.P,U4,3,I3*%
%TO.N,Net-(MCU1-Pad5)*%
X167430000Y-90800000D03*
%TO.P,U4,2,I2*%
%TO.N,Net-(MCU1-Pad6)*%
X164890000Y-90800000D03*
D19*
%TO.P,U4,1,I1*%
%TO.N,Net-(MCU1-Pad7)*%
X162350000Y-90800000D03*
%TD*%
D15*
%TO.P,U2,1,SCK*%
%TO.N,Net-(MCU1-Pad13)*%
X169310000Y-113810000D03*
D18*
%TO.P,U2,2,SDI*%
%TO.N,Net-(MCU1-Pad11)*%
X169310000Y-111270000D03*
%TO.P,U2,3,CS/LD*%
%TO.N,Net-(MCU1-Pad10)*%
X169310000Y-108730000D03*
%TO.P,U2,4,REF*%
%TO.N,+5V*%
X169310000Y-106190000D03*
%TO.P,U2,5,VA*%
%TO.N,Net-(J2-Pad3)*%
X161690000Y-106190000D03*
%TO.P,U2,6,GND*%
%TO.N,Earth*%
X161690000Y-108730000D03*
%TO.P,U2,7,VCC*%
%TO.N,+5V*%
X161690000Y-111270000D03*
%TO.P,U2,8,VB*%
%TO.N,Net-(J2-Pad1)*%
X161690000Y-113810000D03*
%TD*%
D19*
%TO.P,U3,1,I1*%
%TO.N,Net-(MCU1-Pad19)*%
X133350000Y-90800000D03*
D18*
%TO.P,U3,2,I2*%
%TO.N,Net-(MCU1-Pad18)*%
X135890000Y-90800000D03*
%TO.P,U3,3,I3*%
%TO.N,Net-(MCU1-Pad17)*%
X138430000Y-90800000D03*
%TO.P,U3,4,I4*%
%TO.N,Net-(MCU1-Pad16)*%
X140970000Y-90800000D03*
%TO.P,U3,5,I5*%
%TO.N,Net-(R9-Pad2)*%
X143510000Y-90800000D03*
%TO.P,U3,6,I6*%
%TO.N,Net-(R11-Pad2)*%
X146050000Y-90800000D03*
%TO.P,U3,7,I7*%
%TO.N,Net-(R13-Pad2)*%
X148590000Y-90800000D03*
%TO.P,U3,8,I8*%
%TO.N,Net-(MCU1-Pad8)*%
X151130000Y-90800000D03*
%TO.P,U3,9,GND*%
%TO.N,Earth*%
X153670000Y-90800000D03*
%TO.P,U3,10,COM*%
%TO.N,+12V*%
X153670000Y-83180000D03*
%TO.P,U3,11,O8*%
%TO.N,Net-(J5-Pad11)*%
X151130000Y-83180000D03*
%TO.P,U3,12,O7*%
%TO.N,Net-(J5-Pad12)*%
X148590000Y-83180000D03*
%TO.P,U3,13,O6*%
%TO.N,Net-(J5-Pad13)*%
X146050000Y-83180000D03*
%TO.P,U3,14,O5*%
%TO.N,Net-(J5-Pad14)*%
X143510000Y-83180000D03*
%TO.P,U3,15,O4*%
%TO.N,Net-(J5-Pad7)*%
X140970000Y-83180000D03*
%TO.P,U3,16,O3*%
%TO.N,Net-(J5-Pad15)*%
X138430000Y-83180000D03*
%TO.P,U3,17,O2*%
%TO.N,Net-(J5-Pad8)*%
X135890000Y-83180000D03*
%TO.P,U3,18,O1*%
%TO.N,Net-(J5-Pad16)*%
X133350000Y-83180000D03*
%TD*%
D13*
%TO.P,D2,1,K*%
%TO.N,Earth*%
X108110000Y-68000000D03*
D14*
%TO.P,D2,2,A*%
%TO.N,Net-(D2-Pad2)*%
X110650000Y-68000000D03*
%TD*%
D10*
%TO.P,R4,1*%
%TO.N,Net-(D4-Pad2)*%
X115018484Y-75000000D03*
D11*
%TO.P,R4,2*%
%TO.N,Net-(MCU1-Pad16)*%
X120098484Y-75000000D03*
%TD*%
D13*
%TO.P,D11,1,K*%
%TO.N,Earth*%
X101098484Y-85000000D03*
D14*
%TO.P,D11,2,A*%
%TO.N,Net-(D11-Pad2)*%
X98558484Y-85000000D03*
%TD*%
D13*
%TO.P,D16,1,K*%
%TO.N,Earth*%
X101098484Y-120000000D03*
D14*
%TO.P,D16,2,A*%
%TO.N,Net-(D16-Pad2)*%
X98558484Y-120000000D03*
%TD*%
D16*
%TO.P,J4,8,Pin_8*%
%TO.N,+12V*%
X180000000Y-58000000D03*
%TO.P,J4,7,Pin_7*%
X183500000Y-58000000D03*
%TO.P,J4,6,Pin_6*%
X187000000Y-58000000D03*
%TO.P,J4,5,Pin_5*%
X190500000Y-58000000D03*
%TO.P,J4,4,Pin_4*%
X194000000Y-58000000D03*
%TO.P,J4,3,Pin_3*%
X197500000Y-58000000D03*
%TO.P,J4,2,Pin_2*%
X201000000Y-58000000D03*
%TO.P,J4,1,Pin_1*%
X204500000Y-58000000D03*
%TD*%
D15*
%TO.P,C2,1*%
%TO.N,Earth*%
X206690000Y-87520000D03*
%TO.P,C2,2*%
X206690000Y-85020000D03*
%TD*%
D11*
%TO.P,R1,2*%
%TO.N,Net-(MCU1-Pad19)*%
X88960000Y-68000000D03*
D10*
%TO.P,R1,1*%
%TO.N,Net-(D1-Pad2)*%
X94040000Y-68000000D03*
%TD*%
%TO.P,R10,1*%
%TO.N,Net-(MCU1-Pad4)*%
X120040000Y-92000000D03*
D11*
%TO.P,R10,2*%
%TO.N,Net-(D6-Pad2)*%
X114960000Y-92000000D03*
%TD*%
D13*
%TO.P,D1,1,K*%
%TO.N,Earth*%
X101020000Y-68000000D03*
D14*
%TO.P,D1,2,A*%
%TO.N,Net-(D1-Pad2)*%
X98480000Y-68000000D03*
%TD*%
D10*
%TO.P,R7,1*%
%TO.N,Net-(MCU1-Pad2)*%
X120040000Y-106000000D03*
D11*
%TO.P,R7,2*%
%TO.N,Net-(D8-Pad2)*%
X114960000Y-106000000D03*
%TD*%
D10*
%TO.P,R2,1*%
%TO.N,Net-(D2-Pad2)*%
X114960000Y-68000000D03*
D11*
%TO.P,R2,2*%
%TO.N,Net-(MCU1-Pad18)*%
X120040000Y-68000000D03*
%TD*%
D16*
%TO.P,J2,1,Pin_1*%
%TO.N,Net-(J2-Pad1)*%
X129000000Y-58000000D03*
%TO.P,J2,2,Pin_2*%
%TO.N,Earth*%
X125500000Y-58000000D03*
%TO.P,J2,3,Pin_3*%
%TO.N,Net-(J2-Pad3)*%
X122000000Y-58000000D03*
%TO.P,J2,4,Pin_4*%
%TO.N,Earth*%
X118500000Y-58000000D03*
%TD*%
D13*
%TO.P,D4,1,K*%
%TO.N,Earth*%
X108106007Y-75005476D03*
D14*
%TO.P,D4,2,A*%
%TO.N,Net-(D4-Pad2)*%
X110646007Y-75005476D03*
%TD*%
D13*
%TO.P,D14,1,K*%
%TO.N,Earth*%
X101098484Y-106000000D03*
D14*
%TO.P,D14,2,A*%
%TO.N,Net-(D14-Pad2)*%
X98558484Y-106000000D03*
%TD*%
D10*
%TO.P,R13,1*%
%TO.N,Net-(D13-Pad2)*%
X94040000Y-99000000D03*
D11*
%TO.P,R13,2*%
%TO.N,Net-(R13-Pad2)*%
X88960000Y-99000000D03*
%TD*%
D10*
%TO.P,R6,1*%
%TO.N,Net-(MCU1-Pad1)*%
X120040000Y-113000000D03*
D11*
%TO.P,R6,2*%
%TO.N,Net-(D9-Pad2)*%
X114960000Y-113000000D03*
%TD*%
D20*
%TO.P,MCU1,0,B1-O1*%
%TO.N,Net-(MCU1-Pad0)*%
X211470000Y-104650000D03*
%TO.P,MCU1,1,B1-O2*%
%TO.N,Net-(MCU1-Pad1)*%
X208930000Y-104650000D03*
%TO.P,MCU1,2,B1-O3*%
%TO.N,Net-(MCU1-Pad2)*%
X206390000Y-104650000D03*
%TO.P,MCU1,3,B1-O4*%
%TO.N,Net-(MCU1-Pad3)*%
X203850000Y-104650000D03*
%TO.P,MCU1,3.3V*%
%TO.N,unconnected-(MCU1-Pad3.3V)*%
X208930000Y-117350000D03*
%TO.P,MCU1,4,B1-O5*%
%TO.N,Net-(MCU1-Pad4)*%
X201310000Y-104650000D03*
%TO.P,MCU1,5,B1-O6*%
%TO.N,Net-(MCU1-Pad5)*%
X198770000Y-104650000D03*
%TO.P,MCU1,6,B2-O1*%
%TO.N,Net-(MCU1-Pad6)*%
X196230000Y-104650000D03*
%TO.P,MCU1,7,B2-O2*%
%TO.N,Net-(MCU1-Pad7)*%
X193690000Y-104650000D03*
%TO.P,MCU1,8,B2-O3*%
%TO.N,Net-(MCU1-Pad8)*%
X191150000Y-104650000D03*
%TO.P,MCU1,9,B2-O4*%
%TO.N,Net-(R13-Pad2)*%
X188610000Y-104650000D03*
%TO.P,MCU1,10,CS*%
%TO.N,Net-(MCU1-Pad10)*%
X186070000Y-104650000D03*
%TO.P,MCU1,11,MOSI*%
%TO.N,Net-(MCU1-Pad11)*%
X183530000Y-104650000D03*
%TO.P,MCU1,12,MISO*%
%TO.N,unconnected-(MCU1-Pad12)*%
X180990000Y-104650000D03*
%TO.P,MCU1,13,SCK*%
%TO.N,Net-(MCU1-Pad13)*%
X180990000Y-117350000D03*
%TO.P,MCU1,14,B2-O5*%
%TO.N,Net-(R11-Pad2)*%
X183530000Y-117350000D03*
%TO.P,MCU1,15,B2-O6*%
%TO.N,Net-(R9-Pad2)*%
X186070000Y-117350000D03*
%TO.P,MCU1,16,B1-SH*%
%TO.N,Net-(MCU1-Pad16)*%
X188610000Y-117350000D03*
%TO.P,MCU1,17,B2-SH*%
%TO.N,Net-(MCU1-Pad17)*%
X191150000Y-117350000D03*
%TO.P,MCU1,18,B1-CL*%
%TO.N,Net-(MCU1-Pad18)*%
X193690000Y-117350000D03*
%TO.P,MCU1,19,B2-CL*%
%TO.N,Net-(MCU1-Pad19)*%
X196230000Y-117350000D03*
%TO.P,MCU1,20,GPIO-A6*%
%TO.N,Net-(J3-Pad1)*%
X198770000Y-117350000D03*
%TO.P,MCU1,21,GPIO-A7*%
%TO.N,Net-(J3-Pad3)*%
X201310000Y-117350000D03*
%TO.P,MCU1,22,GPIO-A8*%
%TO.N,Net-(J3-Pad5)*%
X203850000Y-117350000D03*
%TO.P,MCU1,23,GPIO-A9*%
%TO.N,Net-(J3-Pad7)*%
X206390000Y-117350000D03*
%TO.P,MCU1,GND*%
%TO.N,Earth*%
X211470000Y-117350000D03*
X214010000Y-104650000D03*
%TO.P,MCU1,Vin*%
%TO.N,unconnected-(MCU1-PadVin)*%
X214010000Y-117350000D03*
%TD*%
D16*
%TO.P,J1,1,Pin_1*%
%TO.N,Earth*%
X212500000Y-73750000D03*
%TO.P,J1,2,Pin_2*%
%TO.N,+12V*%
X212500000Y-70250000D03*
%TD*%
D10*
%TO.P,R8,1*%
%TO.N,Net-(MCU1-Pad3)*%
X120040000Y-99000000D03*
D11*
%TO.P,R8,2*%
%TO.N,Net-(D7-Pad2)*%
X114960000Y-99000000D03*
%TD*%
D13*
%TO.P,D3,1,K*%
%TO.N,Earth*%
X101078484Y-75000000D03*
D14*
%TO.P,D3,2,A*%
%TO.N,Net-(D3-Pad2)*%
X98538484Y-75000000D03*
%TD*%
D21*
%TO.N,Net-(J2-Pad1)*%
X150500000Y-114000000D03*
%TO.N,Net-(J2-Pad3)*%
X146500000Y-115000000D03*
%TD*%
D22*
%TO.N,Net-(J3-Pad7)*%
X204000000Y-119740000D02*
X206390000Y-117350000D01*
X204000000Y-131000000D02*
X204000000Y-119740000D01*
%TO.N,Net-(J3-Pad5)*%
X197000000Y-131000000D02*
X197000000Y-124200000D01*
X197000000Y-124200000D02*
X203850000Y-117350000D01*
%TO.N,Net-(J3-Pad3)*%
X190000000Y-128660000D02*
X201310000Y-117350000D01*
X190000000Y-131000000D02*
X190000000Y-128660000D01*
%TO.N,Net-(J3-Pad1)*%
X188620000Y-127500000D02*
X198770000Y-117350000D01*
X186500000Y-127500000D02*
X188620000Y-127500000D01*
X183000000Y-131000000D02*
X186500000Y-127500000D01*
D23*
%TO.N,+12V*%
X186000000Y-79500000D02*
X183000000Y-79500000D01*
X186500000Y-79000000D02*
X186000000Y-79500000D01*
X161500000Y-87000000D02*
X154000000Y-79500000D01*
X185000000Y-87000000D02*
X161500000Y-87000000D01*
X186500000Y-85500000D02*
X185000000Y-87000000D01*
X186500000Y-79000000D02*
X186500000Y-85500000D01*
X196500000Y-69000000D02*
X186500000Y-79000000D01*
D22*
X153670000Y-79830000D02*
X154000000Y-79500000D01*
X153670000Y-83180000D02*
X153670000Y-79830000D01*
X182670000Y-79830000D02*
X183000000Y-79500000D01*
X182670000Y-83180000D02*
X182670000Y-79830000D01*
%TO.N,Earth*%
X198940000Y-87520000D02*
X206690000Y-87520000D01*
D23*
X211750000Y-73000000D02*
X212500000Y-73750000D01*
D22*
X206690000Y-85020000D02*
X201520000Y-85020000D01*
D23*
X204500000Y-73000000D02*
X211750000Y-73000000D01*
D22*
X196420000Y-85000000D02*
X198940000Y-87520000D01*
X201520000Y-85020000D02*
X201500000Y-85000000D01*
D23*
%TO.N,+12V*%
X212250000Y-70500000D02*
X212500000Y-70250000D01*
X183500000Y-58000000D02*
X187000000Y-58000000D01*
X204500000Y-58000000D02*
X204500000Y-70500000D01*
X190500000Y-58000000D02*
X194000000Y-58000000D01*
X187000000Y-58000000D02*
X190500000Y-58000000D01*
X204500000Y-70500000D02*
X212250000Y-70500000D01*
X204500000Y-70500000D02*
X198000000Y-70500000D01*
D22*
X153750000Y-83100000D02*
X153670000Y-83180000D01*
D23*
X201000000Y-58000000D02*
X204500000Y-58000000D01*
X198000000Y-70500000D02*
X196500000Y-69000000D01*
D22*
X182750000Y-83100000D02*
X182670000Y-83180000D01*
D23*
X194000000Y-58000000D02*
X197500000Y-58000000D01*
X197500000Y-58000000D02*
X201000000Y-58000000D01*
X180000000Y-58000000D02*
X183500000Y-58000000D01*
D22*
%TO.N,Net-(C3-Pad1)*%
X196500000Y-74000000D02*
X196500000Y-80000000D01*
X198960000Y-85000000D02*
X198960000Y-82460000D01*
X198960000Y-82460000D02*
X196500000Y-80000000D01*
%TO.N,+5V*%
X193880000Y-80120000D02*
X194000000Y-80000000D01*
X193880000Y-85000000D02*
X193880000Y-80120000D01*
X173000000Y-106000000D02*
X169500000Y-106000000D01*
X169500000Y-106000000D02*
X169310000Y-106190000D01*
D24*
%TO.N,Net-(D1-Pad2)*%
X94040000Y-68000000D02*
X98480000Y-68000000D01*
%TO.N,Net-(D2-Pad2)*%
X110650000Y-68000000D02*
X114960000Y-68000000D01*
%TO.N,Net-(D3-Pad2)*%
X94040000Y-75000000D02*
X98538484Y-75000000D01*
%TO.N,Net-(D4-Pad2)*%
X115013008Y-75005476D02*
X115018484Y-75000000D01*
X110646007Y-75005476D02*
X115013008Y-75005476D01*
%TO.N,Net-(D5-Pad2)*%
X110638484Y-85000000D02*
X114960000Y-85000000D01*
%TO.N,Net-(D6-Pad2)*%
X110638484Y-92000000D02*
X114960000Y-92000000D01*
%TO.N,Net-(D7-Pad2)*%
X110638484Y-99000000D02*
X114960000Y-99000000D01*
%TO.N,Net-(D8-Pad2)*%
X110638484Y-106000000D02*
X114960000Y-106000000D01*
%TO.N,Net-(D9-Pad2)*%
X110638484Y-113000000D02*
X114960000Y-113000000D01*
%TO.N,Net-(D10-Pad2)*%
X110638484Y-120000000D02*
X114960000Y-120000000D01*
%TO.N,Net-(D11-Pad2)*%
X94040000Y-85000000D02*
X98558484Y-85000000D01*
%TO.N,Net-(D12-Pad2)*%
X94040000Y-92000000D02*
X98558484Y-92000000D01*
%TO.N,Net-(D13-Pad2)*%
X94040000Y-99000000D02*
X98558484Y-99000000D01*
%TO.N,Net-(D14-Pad2)*%
X94040000Y-106000000D02*
X98558484Y-106000000D01*
%TO.N,Net-(D15-Pad2)*%
X94040000Y-113000000D02*
X98558484Y-113000000D01*
%TO.N,Net-(D16-Pad2)*%
X94040000Y-120000000D02*
X98558484Y-120000000D01*
D22*
%TO.N,Net-(J2-Pad1)*%
X126500000Y-60500000D02*
X129000000Y-58000000D01*
X150500000Y-114000000D02*
X148500000Y-112000000D01*
X126500000Y-104000000D02*
X126500000Y-60500000D01*
X148500000Y-112000000D02*
X134500000Y-112000000D01*
X134500000Y-112000000D02*
X126500000Y-104000000D01*
%TO.N,Net-(J2-Pad3)*%
X146500000Y-115000000D02*
X133500000Y-115000000D01*
X133500000Y-115000000D02*
X123500000Y-105000000D01*
X123500000Y-105000000D02*
X123500000Y-59500000D01*
X123500000Y-59500000D02*
X122000000Y-58000000D01*
%TO.N,Net-(J3-Pad7)*%
X206500000Y-117460000D02*
X206390000Y-117350000D01*
%TO.N,Net-(J5-Pad1)*%
X180130000Y-83180000D02*
X180130000Y-78380000D01*
X180130000Y-78380000D02*
X170750000Y-69000000D01*
%TO.N,Net-(J5-Pad2)*%
X177590000Y-79340000D02*
X167250000Y-69000000D01*
X177590000Y-83180000D02*
X177590000Y-79340000D01*
%TO.N,Net-(J5-Pad3)*%
X175050000Y-83180000D02*
X175050000Y-80300000D01*
X175050000Y-80300000D02*
X163750000Y-69000000D01*
%TO.N,Net-(J5-Pad4)*%
X172510000Y-81260000D02*
X160250000Y-69000000D01*
X172510000Y-83180000D02*
X172510000Y-81260000D01*
%TO.N,Net-(J5-Pad5)*%
X169970000Y-82220000D02*
X169970000Y-83180000D01*
X156750000Y-69000000D02*
X169970000Y-82220000D01*
%TO.N,Net-(J5-Pad6)*%
X153250000Y-69000000D02*
X167430000Y-83180000D01*
%TO.N,Net-(J5-Pad11)*%
X151130000Y-81630000D02*
X151130000Y-83180000D01*
X145500000Y-66000000D02*
X143500000Y-68000000D01*
X162000000Y-57800000D02*
X162000000Y-58500000D01*
X143500000Y-68000000D02*
X143500000Y-74000000D01*
X154500000Y-66000000D02*
X145500000Y-66000000D01*
X143500000Y-74000000D02*
X151130000Y-81630000D01*
X162000000Y-58500000D02*
X154500000Y-66000000D01*
%TO.N,Net-(J5-Pad12)*%
X144500000Y-64000000D02*
X152500000Y-64000000D01*
X148590000Y-83180000D02*
X148590000Y-82090000D01*
X152500000Y-64000000D02*
X158500000Y-58000000D01*
X141500000Y-67000000D02*
X144500000Y-64000000D01*
X158500000Y-58000000D02*
X158500000Y-57800000D01*
X148590000Y-82090000D02*
X141500000Y-75000000D01*
X141500000Y-75000000D02*
X141500000Y-67000000D01*
%TO.N,Net-(J5-Pad13)*%
X151500000Y-62000000D02*
X143500000Y-62000000D01*
X146050000Y-82550000D02*
X146050000Y-83180000D01*
X143500000Y-62000000D02*
X139500000Y-66000000D01*
X155000000Y-57800000D02*
X155000000Y-58500000D01*
X155000000Y-58500000D02*
X151500000Y-62000000D01*
X139500000Y-66000000D02*
X139500000Y-76000000D01*
X139500000Y-76000000D02*
X146050000Y-82550000D01*
%TO.N,Net-(J5-Pad14)*%
X137500000Y-77000000D02*
X143510000Y-83010000D01*
X151500000Y-57800000D02*
X151500000Y-59000000D01*
X151500000Y-59000000D02*
X150500000Y-60000000D01*
X142500000Y-60000000D02*
X137500000Y-65000000D01*
X150500000Y-60000000D02*
X142500000Y-60000000D01*
X137500000Y-65000000D02*
X137500000Y-77000000D01*
X143510000Y-83010000D02*
X143510000Y-83180000D01*
%TO.N,Net-(J5-Pad15)*%
X131500000Y-86000000D02*
X130500000Y-85000000D01*
X148000000Y-56500000D02*
X148000000Y-57800000D01*
X136500000Y-86000000D02*
X131500000Y-86000000D01*
X133500000Y-63000000D02*
X141500000Y-55000000D01*
X138430000Y-83180000D02*
X138430000Y-84070000D01*
X146500000Y-55000000D02*
X148000000Y-56500000D01*
X138430000Y-84070000D02*
X136500000Y-86000000D01*
X141500000Y-55000000D02*
X146500000Y-55000000D01*
X130500000Y-81000000D02*
X133500000Y-78000000D01*
X133500000Y-78000000D02*
X133500000Y-63000000D01*
X130500000Y-85000000D02*
X130500000Y-81000000D01*
%TO.N,Net-(J5-Pad16)*%
X135500000Y-64000000D02*
X141700000Y-57800000D01*
X133350000Y-83180000D02*
X135500000Y-81030000D01*
X135500000Y-81030000D02*
X135500000Y-64000000D01*
X141700000Y-57800000D02*
X144500000Y-57800000D01*
D24*
%TO.N,Net-(MCU1-Pad0)*%
X182330000Y-93000000D02*
X199820000Y-93000000D01*
X199820000Y-93000000D02*
X211470000Y-104650000D01*
X180130000Y-90800000D02*
X182330000Y-93000000D01*
%TO.N,Net-(MCU1-Pad1)*%
X180790000Y-94000000D02*
X198280000Y-94000000D01*
X198280000Y-94000000D02*
X208930000Y-104650000D01*
X177590000Y-90800000D02*
X180790000Y-94000000D01*
%TO.N,Net-(MCU1-Pad2)*%
X175050000Y-90800000D02*
X179250000Y-95000000D01*
X179250000Y-95000000D02*
X196740000Y-95000000D01*
X196740000Y-95000000D02*
X206390000Y-104650000D01*
%TO.N,Net-(MCU1-Pad3)*%
X195200000Y-96000000D02*
X203850000Y-104650000D01*
X172510000Y-90800000D02*
X177710000Y-96000000D01*
X177710000Y-96000000D02*
X195200000Y-96000000D01*
%TO.N,Net-(MCU1-Pad4)*%
X176170000Y-97000000D02*
X193660000Y-97000000D01*
X169970000Y-90800000D02*
X176170000Y-97000000D01*
X193660000Y-97000000D02*
X201310000Y-104650000D01*
%TO.N,Net-(MCU1-Pad5)*%
X192120000Y-98000000D02*
X198770000Y-104650000D01*
X174630000Y-98000000D02*
X192120000Y-98000000D01*
X167430000Y-90800000D02*
X174630000Y-98000000D01*
%TO.N,Net-(MCU1-Pad8)*%
X161330000Y-101000000D02*
X187500000Y-101000000D01*
X151130000Y-90800000D02*
X161330000Y-101000000D01*
X187500000Y-101000000D02*
X191150000Y-104650000D01*
%TO.N,Net-(MCU1-Pad10)*%
X185850000Y-104650000D02*
X182500000Y-108000000D01*
X169310000Y-108730000D02*
X181770000Y-108730000D01*
X181770000Y-108730000D02*
X182500000Y-108000000D01*
X186070000Y-104650000D02*
X185850000Y-104650000D01*
%TO.N,Net-(MCU1-Pad11)*%
X167500000Y-109460000D02*
X169310000Y-111270000D01*
X167500000Y-105000000D02*
X167500000Y-109460000D01*
X181880000Y-103000000D02*
X169500000Y-103000000D01*
X183530000Y-104650000D02*
X181880000Y-103000000D01*
X169500000Y-103000000D02*
X167500000Y-105000000D01*
%TO.N,Net-(MCU1-Pad13)*%
X180990000Y-117350000D02*
X177450000Y-113810000D01*
X177450000Y-113810000D02*
X169310000Y-113810000D01*
%TO.N,Net-(R13-Pad2)*%
X185960000Y-102000000D02*
X159790000Y-102000000D01*
X159790000Y-102000000D02*
X148590000Y-90800000D01*
X188610000Y-104650000D02*
X185960000Y-102000000D01*
%TO.N,Net-(MCU1-Pad6)*%
X164890000Y-90800000D02*
X173090000Y-99000000D01*
X190580000Y-99000000D02*
X196230000Y-104650000D01*
X173090000Y-99000000D02*
X190580000Y-99000000D01*
%TO.N,Net-(MCU1-Pad7)*%
X162350000Y-90800000D02*
X171550000Y-100000000D01*
X171550000Y-100000000D02*
X189040000Y-100000000D01*
X189040000Y-100000000D02*
X193690000Y-104650000D01*
%TO.N,Net-(R11-Pad2)*%
X179880000Y-121000000D02*
X183530000Y-117350000D01*
X157500000Y-120000000D02*
X158500000Y-121000000D01*
X157500000Y-102250000D02*
X157500000Y-120000000D01*
X158500000Y-121000000D02*
X179880000Y-121000000D01*
X146050000Y-90800000D02*
X157500000Y-102250000D01*
%TO.N,Net-(R9-Pad2)*%
X181420000Y-122000000D02*
X186070000Y-117350000D01*
X143510000Y-90800000D02*
X156500000Y-103790000D01*
X156500000Y-103790000D02*
X156500000Y-120500000D01*
X158000000Y-122000000D02*
X181420000Y-122000000D01*
X156500000Y-120500000D02*
X158000000Y-122000000D01*
%TO.N,Net-(MCU1-Pad16)*%
X155500000Y-105330000D02*
X155500000Y-121000000D01*
X155500000Y-121000000D02*
X157500000Y-123000000D01*
X182960000Y-123000000D02*
X188610000Y-117350000D01*
X140970000Y-90800000D02*
X155500000Y-105330000D01*
X157500000Y-123000000D02*
X182960000Y-123000000D01*
%TO.N,Net-(MCU1-Pad17)*%
X138430000Y-90800000D02*
X154500000Y-106870000D01*
X184500000Y-124000000D02*
X191150000Y-117350000D01*
X154500000Y-121500000D02*
X157000000Y-124000000D01*
X154500000Y-106870000D02*
X154500000Y-121500000D01*
X157000000Y-124000000D02*
X184500000Y-124000000D01*
%TO.N,Net-(MCU1-Pad18)*%
X186040000Y-125000000D02*
X193690000Y-117350000D01*
X135890000Y-90800000D02*
X153500000Y-108410000D01*
X156500000Y-125000000D02*
X186040000Y-125000000D01*
X153500000Y-122000000D02*
X156500000Y-125000000D01*
X153500000Y-108410000D02*
X153500000Y-122000000D01*
%TO.N,Net-(MCU1-Pad19)*%
X133350000Y-90800000D02*
X133350000Y-90850000D01*
X152500000Y-110000000D02*
X152500000Y-122250000D01*
X187580000Y-126000000D02*
X196230000Y-117350000D01*
X133350000Y-90850000D02*
X152500000Y-110000000D01*
X156250000Y-126000000D02*
X187580000Y-126000000D01*
X152500000Y-122250000D02*
X156250000Y-126000000D01*
%TD*%
M02*
