%TF.GenerationSoftware,KiCad,Pcbnew,(6.0.10)*%
%TF.CreationDate,2023-03-29T09:38:32-04:00*%
%TF.ProjectId,SequenceOM,53657175-656e-4636-954f-4d2e6b696361,rev?*%
%TF.SameCoordinates,Original*%
%TF.FileFunction,Soldermask,Bot*%
%TF.FilePolarity,Negative*%
%FSLAX46Y46*%
G04 Gerber Fmt 4.6, Leading zero omitted, Abs format (unit mm)*
G04 Created by KiCad (PCBNEW (6.0.10)) date 2023-03-29 09:38:32*
%MOMM*%
%LPD*%
G01*
G04 APERTURE LIST*
%ADD10C,2.400000*%
%ADD11C,2.000000*%
%ADD12C,1.400000*%
%ADD13O,1.400000X1.400000*%
%ADD14C,2.600000*%
%ADD15R,1.800000X1.800000*%
%ADD16C,1.800000*%
%ADD17C,1.600000*%
%ADD18O,1.300000X0.750000*%
%ADD19R,1.600000X1.600000*%
%ADD20O,1.600000X1.600000*%
G04 APERTURE END LIST*
D10*
%TO.C,J3*%
X183000000Y-131000000D03*
X186500000Y-131000000D03*
X190000000Y-131000000D03*
X193500000Y-131000000D03*
X197000000Y-131000000D03*
X200500000Y-131000000D03*
X204000000Y-131000000D03*
X207500000Y-131000000D03*
%TD*%
D11*
%TO.C,MCU1*%
X211340000Y-104680000D03*
X208800000Y-104680000D03*
X206260000Y-104680000D03*
X203720000Y-104680000D03*
X208800000Y-119920000D03*
X201180000Y-104680000D03*
X198640000Y-104680000D03*
X196100000Y-104680000D03*
X193560000Y-104680000D03*
X191020000Y-104680000D03*
X188480000Y-104680000D03*
X185940000Y-104680000D03*
X183400000Y-104680000D03*
X180860000Y-104680000D03*
X180860000Y-119920000D03*
X183400000Y-119920000D03*
X185940000Y-119920000D03*
X188480000Y-119920000D03*
X191020000Y-119920000D03*
X193560000Y-119920000D03*
X196100000Y-119920000D03*
X198640000Y-119920000D03*
X201180000Y-119920000D03*
X203720000Y-119920000D03*
X206260000Y-119920000D03*
X213880000Y-104680000D03*
X211340000Y-119920000D03*
X213880000Y-119920000D03*
%TD*%
D12*
%TO.C,R3*%
X94040000Y-75000000D03*
D13*
X88960000Y-75000000D03*
%TD*%
D14*
%TO.C,L1*%
X196500000Y-69000000D03*
X196500000Y-74000000D03*
%TD*%
D15*
%TO.C,D7*%
X108098484Y-99000000D03*
D16*
X110638484Y-99000000D03*
%TD*%
D12*
%TO.C,R15*%
X94040000Y-113000000D03*
D13*
X88960000Y-113000000D03*
%TD*%
D15*
%TO.C,D12*%
X101098484Y-92000000D03*
D16*
X98558484Y-92000000D03*
%TD*%
D12*
%TO.C,R9*%
X94040000Y-85000000D03*
D13*
X88960000Y-85000000D03*
%TD*%
D15*
%TO.C,D8*%
X108098484Y-106000000D03*
D16*
X110638484Y-106000000D03*
%TD*%
D15*
%TO.C,D10*%
X108098484Y-120000000D03*
D16*
X110638484Y-120000000D03*
%TD*%
D17*
%TO.C,C5*%
X154000000Y-77000000D03*
X154000000Y-79500000D03*
%TD*%
%TO.C,C3*%
X196500000Y-80000000D03*
X194000000Y-80000000D03*
%TD*%
D15*
%TO.C,D13*%
X101098484Y-99000000D03*
D16*
X98558484Y-99000000D03*
%TD*%
D10*
%TO.C,J5*%
X170750000Y-69000000D03*
X167250000Y-69000000D03*
X163750000Y-69000000D03*
X160250000Y-69000000D03*
X156750000Y-69000000D03*
X153250000Y-69000000D03*
X149750000Y-69000000D03*
X146250000Y-69000000D03*
X169000000Y-57800000D03*
X165500000Y-57800000D03*
X162000000Y-57800000D03*
X158500000Y-57800000D03*
X155000000Y-57800000D03*
X151500000Y-57800000D03*
X148000000Y-57800000D03*
X144500000Y-57800000D03*
%TD*%
D12*
%TO.C,R16*%
X94040000Y-120000000D03*
D13*
X88960000Y-120000000D03*
%TD*%
D17*
%TO.C,C6*%
X183000000Y-77000000D03*
X183000000Y-79500000D03*
%TD*%
D15*
%TO.C,D5*%
X108098484Y-85000000D03*
D16*
X110638484Y-85000000D03*
%TD*%
D15*
%TO.C,D9*%
X108098484Y-113000000D03*
D16*
X110638484Y-113000000D03*
%TD*%
D12*
%TO.C,R11*%
X94040000Y-92000000D03*
D13*
X88960000Y-92000000D03*
%TD*%
D18*
%TO.C,U1*%
X201500000Y-85000000D03*
X198960000Y-85000000D03*
X196420000Y-85000000D03*
X193880000Y-85000000D03*
%TD*%
D12*
%TO.C,R12*%
X120040000Y-85000000D03*
D13*
X114960000Y-85000000D03*
%TD*%
D15*
%TO.C,D15*%
X101098484Y-113000000D03*
D16*
X98558484Y-113000000D03*
%TD*%
D12*
%TO.C,R5*%
X120040000Y-120000000D03*
D13*
X114960000Y-120000000D03*
%TD*%
D17*
%TO.C,C1*%
X204500000Y-73000000D03*
X204500000Y-70500000D03*
%TD*%
%TO.C,C4*%
X175500000Y-106000000D03*
X173000000Y-106000000D03*
%TD*%
D12*
%TO.C,R14*%
X94040000Y-106000000D03*
D13*
X88960000Y-106000000D03*
%TD*%
D15*
%TO.C,D6*%
X108098484Y-92000000D03*
D16*
X110638484Y-92000000D03*
%TD*%
D19*
%TO.C,U4*%
X162350000Y-90800000D03*
D20*
X164890000Y-90800000D03*
X167430000Y-90800000D03*
X169970000Y-90800000D03*
X172510000Y-90800000D03*
X175050000Y-90800000D03*
X177590000Y-90800000D03*
X180130000Y-90800000D03*
X182670000Y-90800000D03*
X182670000Y-83180000D03*
X180130000Y-83180000D03*
X177590000Y-83180000D03*
X175050000Y-83180000D03*
X172510000Y-83180000D03*
X169970000Y-83180000D03*
X167430000Y-83180000D03*
X164890000Y-83180000D03*
X162350000Y-83180000D03*
%TD*%
D17*
%TO.C,U2*%
X169310000Y-113810000D03*
D20*
X169310000Y-111270000D03*
X169310000Y-108730000D03*
X169310000Y-106190000D03*
X161690000Y-106190000D03*
X161690000Y-108730000D03*
X161690000Y-111270000D03*
X161690000Y-113810000D03*
%TD*%
D19*
%TO.C,U3*%
X133350000Y-90800000D03*
D20*
X135890000Y-90800000D03*
X138430000Y-90800000D03*
X140970000Y-90800000D03*
X143510000Y-90800000D03*
X146050000Y-90800000D03*
X148590000Y-90800000D03*
X151130000Y-90800000D03*
X153670000Y-90800000D03*
X153670000Y-83180000D03*
X151130000Y-83180000D03*
X148590000Y-83180000D03*
X146050000Y-83180000D03*
X143510000Y-83180000D03*
X140970000Y-83180000D03*
X138430000Y-83180000D03*
X135890000Y-83180000D03*
X133350000Y-83180000D03*
%TD*%
D15*
%TO.C,D2*%
X108110000Y-68000000D03*
D16*
X110650000Y-68000000D03*
%TD*%
D12*
%TO.C,R4*%
X115018484Y-75000000D03*
D13*
X120098484Y-75000000D03*
%TD*%
D15*
%TO.C,D11*%
X101098484Y-85000000D03*
D16*
X98558484Y-85000000D03*
%TD*%
D15*
%TO.C,D16*%
X101098484Y-120000000D03*
D16*
X98558484Y-120000000D03*
%TD*%
D10*
%TO.C,J4*%
X204500000Y-58000000D03*
X201000000Y-58000000D03*
X197500000Y-58000000D03*
X194000000Y-58000000D03*
X190500000Y-58000000D03*
X187000000Y-58000000D03*
X183500000Y-58000000D03*
X180000000Y-58000000D03*
%TD*%
D17*
%TO.C,C2*%
X206690000Y-87520000D03*
X206690000Y-85020000D03*
%TD*%
D12*
%TO.C,R1*%
X94040000Y-68000000D03*
D13*
X88960000Y-68000000D03*
%TD*%
D12*
%TO.C,R10*%
X120040000Y-92000000D03*
D13*
X114960000Y-92000000D03*
%TD*%
D15*
%TO.C,D1*%
X101020000Y-68000000D03*
D16*
X98480000Y-68000000D03*
%TD*%
D12*
%TO.C,R7*%
X120040000Y-106000000D03*
D13*
X114960000Y-106000000D03*
%TD*%
D12*
%TO.C,R2*%
X114960000Y-68000000D03*
D13*
X120040000Y-68000000D03*
%TD*%
D10*
%TO.C,J2*%
X129000000Y-58000000D03*
X125500000Y-58000000D03*
X122000000Y-58000000D03*
X118500000Y-58000000D03*
%TD*%
D15*
%TO.C,D4*%
X108106007Y-75005476D03*
D16*
X110646007Y-75005476D03*
%TD*%
D15*
%TO.C,D14*%
X101098484Y-106000000D03*
D16*
X98558484Y-106000000D03*
%TD*%
D12*
%TO.C,R13*%
X94040000Y-99000000D03*
D13*
X88960000Y-99000000D03*
%TD*%
D12*
%TO.C,R6*%
X120040000Y-113000000D03*
D13*
X114960000Y-113000000D03*
%TD*%
D10*
%TO.C,J1*%
X212500000Y-73750000D03*
X212500000Y-70250000D03*
%TD*%
D12*
%TO.C,R8*%
X120040000Y-99000000D03*
D13*
X114960000Y-99000000D03*
%TD*%
D15*
%TO.C,D3*%
X101078484Y-75000000D03*
D16*
X98538484Y-75000000D03*
%TD*%
M02*
